<?xml version="1.0" encoding="UTF-8"?><!DOCTYPE svg PUBLIC "-//W3C//DTD SVG 1.1//EN" "http://www.w3.org/Graphics/SVG/1.1/DTD/svg11.dtd"><svg xmlns="http://www.w3.org/2000/svg"><symbol id="arrow" viewBox="0 0 28 57"><path d="M2.5 56.33a2.5 2.5 0 0 1-1.9-4.12l20.52-24L.6 4.12A2.5 2.5 0 1 1 4.4.87l23.3 27.29L4.4 55.45a2.5 2.5 0 0 1-1.9.88z"/></symbol><symbol id="bags" viewBox="0 0 90 100"><path d="M39.8 52.1v-7.2c0-1.4 1.1-2.5 2.5-2.5s2.5 1.1 2.5 2.5v7.2c0 4.5 3.7 8.2 8.2 8.2s8.2-3.7 8.2-8.2v-7.2c0-1.4 1.1-2.5 2.5-2.5s2.5 1.1 2.5 2.5v7.2c0 7.3-5.9 13.2-13.2 13.2-7.3-.1-13.2-6-13.2-13.2zM9.4 98.4c-4.9-.6-8.4-5.1-7.7-10.1l7-55.6c.2-1.3 1.2-2.2 2.5-2.2H21V6.4c0-2.7 2.2-4.9 4.9-4.9H52c2.7 0 4.9 2.2 4.9 4.9v7.1H64c2.7 0 4.9 2.2 4.9 4.9v12.1h10.3c1.3 0 2.3.9 2.5 2.2l6.5 52c.1.5.1 1 .1 1.5 0 6.8-5.5 12.2-12.2 12.2H10.7c-.5.1-.9.1-1.3 0zm67.7-62.8H28.7l-6.2 49.8c0 .3-.1.6-.1.9 0 4 3.2 7.2 7.2 7.2h46.5c.3 0 .6 0 .9-.1 4-.5 6.8-4.1 6.3-8.1l-6.2-49.7zM64 18.5l-22 .1.1 12h22L64 18.5zM26 30.6h11V18.5c0-2.7 2.2-4.9 4.9-4.9h10V6.4L26 6.5v24.1zM6.7 89v.6c0 2.2 1.8 4 4 4h9.2c-1.9-2.5-2.7-5.7-2.3-8.8l6.1-49.1H13.3L6.7 89z"/></symbol><symbol id="burger" viewBox="0 0 60 43"><path d="M56 6.1H4C2.6 6.1 1.5 5 1.5 3.6S2.6 1.1 4 1.1h52c1.4 0 2.5 1.1 2.5 2.5S57.4 6.1 56 6.1zm2.5 15.4c0-1.4-1.1-2.5-2.5-2.5H4c-1.4 0-2.5 1.1-2.5 2.5S2.6 24 4 24h52c1.4 0 2.5-1.1 2.5-2.5zm0 17.9c0-1.4-1.1-2.5-2.5-2.5H4c-1.4 0-2.5 1.1-2.5 2.5s1.1 2.5 2.5 2.5h52c1.4 0 2.5-1.1 2.5-2.5z"/></symbol><symbol id="cashback" viewBox="0 0 93 100"><path d="M21.5 56.6H51c2.7 0 5.3 1.2 6.9 3.4.5.7 1 1.5 1.3 2.3l17.9-17.6c2.6-2.6 6.5-3.2 9.8-1.7l.1.1c.9.4 1.7 1 2.4 1.7 3.4 3.3 3.4 8.8.1 12.2L61.8 84.6c-4.3 4.4-10.3 6.8-16.4 6.8H25.5c-1.7 0-3.4.8-4.4 2.2L17.9 98c-.8 1.1-2.4 1.3-3.5.5s-1.3-2.4-.5-3.5l3.2-4.3c2-2.7 5.1-4.3 8.4-4.3h19.9c4.8 0 9.5-1.9 12.9-5.3L86 53.3c.3-.3.5-.6.7-1 .8-1.8.1-3.9-1.7-4.8l-.1-.1c-1.4-.7-3.1-.4-4.2.7l-22.3 22C56.7 72.6 54 74 51 74H32.5c-1.4 0-2.5-1.1-2.5-2.5s1.1-2.5 2.5-2.5H51c2.1 0 3.7-1.7 3.7-3.7 0-2.1-1.7-3.7-3.7-3.7H21.5c-5.1 0-9.8 2.5-12.7 6.6L5.5 73c-.8 1.1-2.4 1.4-3.5.6-1.1-.8-1.4-2.4-.6-3.5l3.3-4.8c3.8-5.5 10.1-8.7 16.8-8.7zm22-38.3c-1.7-1.9-2.7-4.4-2.7-6.9C40.8 5.6 45.4 1 51.1 1c5.7 0 10.3 4.6 10.3 10.3 0 5.7-4.6 10.3-10.3 10.3h-.5c-2.7-.1-5.3-1.3-7.1-3.3zm4-10.9c-2.2 2-2.3 5.4-.3 7.5.9 1 2.3 1.7 3.7 1.7 2.9.1 5.4-2.1 5.6-5.1S54.3 6.2 51.4 6h-.3c-1.3 0-2.6.5-3.6 1.4zm-21.7.5c5.4 0 9.8 4.4 9.7 9.9 0 5.4-4.4 9.8-9.9 9.7h-.5c-2.6-.1-5-1.3-6.7-3.2-3.7-4-3.4-10.2.6-13.8 1.9-1.7 4.3-2.6 6.8-2.6zM30.5 18c.1-1.3-.4-2.5-1.2-3.5-1.8-2-4.8-2.1-6.8-.3s-2.2 4.8-.4 6.8c1.8 2 4.8 2.1 6.8.3.9-.8 1.5-2 1.6-3.3zm5.1 28.9c-4.5-5-4.1-12.8.9-17.3 5-4.6 12.8-4.2 17.4.9 4.6 5 4.2 12.8-.9 17.4s-12.8 4.1-17.4-1zm4.2-13.6c-3 2.7-3.2 7.3-.5 10.3 2.7 3 7.3 3.2 10.3.5 3-2.7 3.2-7.3.5-10.3s-7.3-3.2-10.3-.5z"/></symbol><symbol id="certificate" viewBox="0 0 83 100"><path d="M78.7 33.9l-3.6-3.1c-1.5-1.3-2.3-3.2-2.1-5.2l.3-4.7c.4-5.7-4-10.6-9.7-11h-1.3l-4.7.3c-2 .1-3.9-.7-5.2-2.2l-3.1-3.5C45.5.2 39-.2 34.7 3.5c-.3.3-.7.6-1 1L30.6 8c-1.3 1.5-3.2 2.3-5.2 2.1l-4.7-.3c-5.7-.4-10.6 4-11 9.7v1.3l.3 4.7c.1 2-.7 3.9-2.1 5.2l-3.6 3.1C0 37.6-.4 44.1 3.3 48.4c.3.3.6.7 1 1l3.6 3.1c1.5 1.3 2.3 3.2 2.1 5.2l-.3 4.7c-.1 2.2.4 4.4 1.6 6.3L4.6 85.3c-1 2.5.1 5.3 2.6 6.4 1.1.4 2.3.5 3.4.1l7.3-2.4 3.3 6.9C22 98 23.7 99 25.6 99h.1c1.9 0 3.6-1.2 4.4-3l6.2-15c3.2 1.9 7.2 1.9 10.5 0L53 96c.7 1.8 2.4 3 4.4 3h.1c1.9 0 3.6-1.1 4.4-2.8l3.3-6.9 7.3 2.4c2.6.8 5.3-.6 6.1-3.1.4-1.1.3-2.3-.1-3.3l-6.7-16.5c1.2-1.9 1.8-4.1 1.6-6.3l-.4-4.7c-.1-2 .7-3.9 2.1-5.2l3.6-3.1c4.3-3.8 4.7-10.3 1-14.6l-1-1zM25.6 93.8l-3.3-6.9c-1-2.1-3.4-3.1-5.7-2.4L9.3 87l6-14.6c1.7.9 3.6 1.3 5.4 1.1l4.7-.3c2-.1 3.9.7 5.2 2.1l1.8 2-6.8 16.5zm40.8-9.3c-2.2-.7-4.6.3-5.7 2.4l-3.3 6.9-6.8-16.5 1.8-2c1.3-1.5 3.2-2.3 5.2-2.1l4.7.3c1.9.1 3.8-.3 5.4-1.1l6 14.6-7.3-2.5zm9-38.8l-3.6 3.1c-2.6 2.3-4.1 5.7-3.8 9.3l.3 4.7c.2 3-2 5.5-5 5.7h-.7l-4.7-.3c-3.5-.2-6.9 1.2-9.3 3.8l-3.1 3.6c-1.9 2.2-5.3 2.5-7.6.5l-.5-.5-3.1-3.6c-2.2-2.4-5.3-3.9-8.5-3.9h-.7l-4.7.3c-3 .2-5.5-2-5.7-5v-.7L15 58c.2-3.5-1.2-6.9-3.8-9.3l-3.5-3.1c-2.2-1.9-2.5-5.3-.5-7.6l.5-.5 3.5-3.1c2.6-2.3 4.1-5.7 3.8-9.3l-.3-4.7c-.2-3 2.1-5.5 5.1-5.6h.6l4.7.3c3.5.2 6.9-1.2 9.3-3.8l3.1-3.6c1.9-2.2 5.3-2.5 7.6-.5l.5.5 3.1 3.6c2.3 2.6 5.7 4.1 9.3 3.8l4.7-.3c3-.2 5.5 2 5.7 5v.7l-.4 4.8c-.2 3.5 1.2 6.9 3.8 9.3l3.6 3.1c2.2 1.9 2.5 5.3.5 7.6-.1.1-.3.3-.5.4zM55.1 28.4c-1.9-1.9-4.9-1.9-6.7 0l-10 10-3.7-3.7c-1.9-1.9-4.9-1.9-6.7 0l-4 3.9c-1.9 1.9-1.9 4.9 0 6.7l11 11c1.9 1.9 4.9 1.9 6.7 0L59 39c1.9-1.9 1.9-4.9 0-6.7l-3.9-3.9zM38.3 52.6L27.7 42l3.6-3.6 5.3 5.3c1 1 2.6 1 3.5 0l11.6-11.6 3.6 3.6-17 16.9z"/></symbol><symbol id="facebook" viewBox="0 0 24 24"><path d="M9 8H6v4h3v12h5V12h3.642L18 8h-4V6.333C14 5.378 14.192 5 15.115 5H18V0h-3.808C10.596 0 9 1.583 9 4.615V8z"/></symbol></svg>