<svg version="1.1" id="Ebene_1" xmlns="http://www.w3.org/2000/svg" xmlns:xlink="http://www.w3.org/1999/xlink" x="0px" y="0px" viewBox="0 0 90 100" style="enable-background:new 0 0 90 100;" xml:space="preserve">
    <path d="M39.8,52.1v-7.2c0-1.4,1.1-2.5,2.5-2.5s2.5,1.1,2.5,2.5v7.2c0,4.5,3.7,8.2,8.2,8.2s8.2-3.7,8.2-8.2v-7.2
	c0-1.4,1.1-2.5,2.5-2.5c1.4,0,2.5,1.1,2.5,2.5v7.2c0,7.3-5.9,13.2-13.2,13.2C45.7,65.2,39.8,59.3,39.8,52.1z M9.4,98.4
	C4.5,97.8,1,93.3,1.7,88.3l7-55.6c0.2-1.3,1.2-2.2,2.5-2.2H21V6.4c0,0,0,0,0,0c0-2.7,2.2-4.9,4.9-4.9h26.1c2.7,0,4.9,2.2,4.9,4.9
	v7.1h7.1l0,0c2.7,0,4.9,2.2,4.9,4.9v12.1h10.3c1.3,0,2.3,0.9,2.5,2.2l6.5,52c0.1,0.5,0.1,1,0.1,1.5c0,6.8-5.5,12.2-12.2,12.2H10.7
	C10.2,98.5,9.8,98.5,9.4,98.4z M77.1,35.6H28.7l-6.2,49.8c0,0.3-0.1,0.6-0.1,0.9c0,4,3.2,7.2,7.2,7.2h46.5c0.3,0,0.6,0,0.9-0.1
	c4-0.5,6.8-4.1,6.3-8.1L77.1,35.6z M64,18.5l-22,0.1l0.1,12h22L64,18.5z M26,30.6h11V18.5c0,0,0,0,0,0c0-2.7,2.2-4.9,4.9-4.9h10V6.4
	L26,6.5L26,30.6z M6.7,89c0,0.2,0,0.4,0,0.6c0,2.2,1.8,4,4,4h9.2c-1.9-2.5-2.7-5.7-2.3-8.8l6.1-49.1H13.3L6.7,89L6.7,89z"/>
</svg>
