<?xml version="1.0" encoding="utf-8"?>
<!-- Generator: Adobe Illustrator 21.1.0, SVG Export Plug-In . SVG Version: 6.00 Build 0)  -->
<svg version="1.1" id="Ebene_1" xmlns="http://www.w3.org/2000/svg" xmlns:xlink="http://www.w3.org/1999/xlink" x="0px" y="0px"
	 viewBox="0 0 60 43" style="enable-background:new 0 0 60 43;" xml:space="preserve">
<path d="M56,6.1H4C2.6,6.1,1.5,5,1.5,3.6S2.6,1.1,4,1.1h52c1.4,0,2.5,1.1,2.5,2.5S57.4,6.1,56,6.1z M58.5,21.5
	c0-1.4-1.1-2.5-2.5-2.5H4c-1.4,0-2.5,1.1-2.5,2.5S2.6,24,4,24h52C57.4,24,58.5,22.9,58.5,21.5z M58.5,39.4c0-1.4-1.1-2.5-2.5-2.5H4
	c-1.4,0-2.5,1.1-2.5,2.5s1.1,2.5,2.5,2.5h52C57.4,41.9,58.5,40.8,58.5,39.4z"/>
</svg>
