<svg version="1.1" id="Ebene_1" xmlns="http://www.w3.org/2000/svg" xmlns:xlink="http://www.w3.org/1999/xlink" x="0px" y="0px" viewBox="0 0 93 100" style="enable-background:new 0 0 93 100;" xml:space="preserve">
    <path d="M21.5,56.6h29.5c2.7,0,5.3,1.2,6.9,3.4c0.5,0.7,1,1.5,1.3,2.3l17.9-17.6c2.6-2.6,6.5-3.2,9.8-1.7l0.1,0.1
	c0.9,0.4,1.7,1,2.4,1.7c3.4,3.3,3.4,8.8,0.1,12.2L61.8,84.6c-4.3,4.4-10.3,6.8-16.4,6.8H25.5c-1.7,0-3.4,0.8-4.4,2.2L17.9,98
	c-0.8,1.1-2.4,1.3-3.5,0.5s-1.3-2.4-0.5-3.5l3.2-4.3c2-2.7,5.1-4.3,8.4-4.3h19.9c4.8,0,9.5-1.9,12.9-5.3L86,53.3
	c0.3-0.3,0.5-0.6,0.7-1c0.8-1.8,0.1-3.9-1.7-4.8l-0.1-0.1c-1.4-0.7-3.1-0.4-4.2,0.7l-22.3,22C56.7,72.6,54,74,51,74H32.5
	c-1.4,0-2.5-1.1-2.5-2.5s1.1-2.5,2.5-2.5H51l0,0c2.1,0,3.7-1.7,3.7-3.7c0-2.1-1.7-3.7-3.7-3.7H21.5c-5.1,0-9.8,2.5-12.7,6.6L5.5,73
	c-0.8,1.1-2.4,1.4-3.5,0.6c-1.1-0.8-1.4-2.4-0.6-3.5l3.3-4.8C8.5,59.8,14.8,56.6,21.5,56.6z M43.5,18.3L43.5,18.3
	c-1.7-1.9-2.7-4.4-2.7-6.9C40.8,5.6,45.4,1,51.1,1c5.7,0,10.3,4.6,10.3,10.3c0,5.7-4.6,10.3-10.3,10.3h-0.5
	C47.9,21.5,45.3,20.3,43.5,18.3z M47.5,7.4c-2.2,2-2.3,5.4-0.3,7.5l0,0c0.9,1,2.3,1.7,3.7,1.7c2.9,0.1,5.4-2.1,5.6-5.1
	S54.3,6.2,51.4,6h-0.3C49.8,6,48.5,6.5,47.5,7.4L47.5,7.4z M25.8,7.9c5.4,0,9.8,4.4,9.7,9.9c0,5.4-4.4,9.8-9.9,9.7h-0.5
	c-2.6-0.1-5-1.3-6.7-3.2c-3.7-4-3.4-10.2,0.6-13.8C20.9,8.8,23.3,7.9,25.8,7.9z M30.5,18c0.1-1.3-0.4-2.5-1.2-3.5
	c-1.8-2-4.8-2.1-6.8-0.3S20.3,19,22.1,21c1.8,2,4.8,2.1,6.8,0.3C29.8,20.5,30.4,19.3,30.5,18z M35.6,46.9c-4.5-5-4.1-12.8,0.9-17.3
	c5-4.6,12.8-4.2,17.4,0.9c4.6,5,4.2,12.8-0.9,17.4S40.2,52,35.6,46.9C35.6,46.9,35.6,46.9,35.6,46.9z M39.8,33.3
	C39.8,33.3,39.8,33.3,39.8,33.3c-3,2.7-3.2,7.3-0.5,10.3c2.7,3,7.3,3.2,10.3,0.5c3-2.7,3.2-7.3,0.5-10.3S42.8,30.6,39.8,33.3
	L39.8,33.3z"/>
</svg>
