<svg version="1.1" id="Ebene_1" xmlns="http://www.w3.org/2000/svg" xmlns:xlink="http://www.w3.org/1999/xlink" x="0px" y="0px" viewBox="0 0 83 100" style="enable-background:new 0 0 83 100;" xml:space="preserve">
    <path d="M78.7,33.9l-3.6-3.1c-1.5-1.3-2.3-3.2-2.1-5.2l0.3-4.7c0.4-5.7-4-10.6-9.7-11c-0.4,0-0.9,0-1.3,0l-4.7,0.3
	c-2,0.1-3.9-0.7-5.2-2.2l-3.1-3.5c-3.8-4.3-10.3-4.7-14.6-1c-0.3,0.3-0.7,0.6-1,1l-3.1,3.5c-1.3,1.5-3.2,2.3-5.2,2.1l-4.7-0.3
	c-5.7-0.4-10.6,4-11,9.7c0,0.4,0,0.9,0,1.3l0.3,4.7c0.1,2-0.7,3.9-2.1,5.2l-3.6,3.1c-4.3,3.8-4.7,10.3-1,14.6c0.3,0.3,0.6,0.7,1,1
	l3.6,3.1c1.5,1.3,2.3,3.2,2.1,5.2l-0.3,4.7c-0.1,2.2,0.4,4.4,1.6,6.3L4.6,85.3c-1,2.5,0.1,5.3,2.6,6.4c1.1,0.4,2.3,0.5,3.4,0.1
	l7.3-2.4l3.3,6.9C22,98,23.7,99,25.6,99h0.1c1.9,0,3.6-1.2,4.4-3l6.2-15c3.2,1.9,7.2,1.9,10.5,0l6.2,15c0.7,1.8,2.4,3,4.4,3h0.1
	c1.9,0,3.6-1.1,4.4-2.8l3.3-6.9l7.3,2.4c2.6,0.8,5.3-0.6,6.1-3.1c0.4-1.1,0.3-2.3-0.1-3.3l-6.7-16.5c1.2-1.9,1.8-4.1,1.6-6.3
	L73,57.8c-0.1-2,0.7-3.9,2.1-5.2l3.6-3.1c4.3-3.8,4.7-10.3,1-14.6C79.3,34.5,79,34.2,78.7,33.9z M25.6,93.8l-3.3-6.9
	c-1-2.1-3.4-3.1-5.7-2.4l-7.3,2.5l6-14.6c1.7,0.9,3.6,1.3,5.4,1.1l4.7-0.3c2-0.1,3.9,0.7,5.2,2.1l1.8,2L25.6,93.8z M66.4,84.5
	c-2.2-0.7-4.6,0.3-5.7,2.4l-3.3,6.9l-6.8-16.5l1.8-2c1.3-1.5,3.2-2.3,5.2-2.1l4.7,0.3c1.9,0.1,3.8-0.3,5.4-1.1l6,14.6L66.4,84.5z
	 M75.4,45.7l-3.6,3.1c-2.6,2.3-4.1,5.7-3.8,9.3l0.3,4.7c0.2,3-2,5.5-5,5.7c-0.2,0-0.5,0-0.7,0l-4.7-0.3C54.4,68,51,69.4,48.6,72
	l-3.1,3.6c-1.9,2.2-5.3,2.5-7.6,0.5c-0.2-0.2-0.3-0.3-0.5-0.5L34.3,72c-2.2-2.4-5.3-3.9-8.5-3.9h-0.7l-4.7,0.3c-3,0.2-5.5-2-5.7-5
	c0-0.2,0-0.5,0-0.7L15,58c0.2-3.5-1.2-6.9-3.8-9.3l-3.5-3.1c-2.2-1.9-2.5-5.3-0.5-7.6c0.2-0.2,0.3-0.3,0.5-0.5l3.5-3.1
	c2.6-2.3,4.1-5.7,3.8-9.3l-0.3-4.7c-0.2-3,2.1-5.5,5.1-5.6c0.2,0,0.4,0,0.6,0l0,0l4.7,0.3c3.5,0.2,6.9-1.2,9.3-3.8l3.1-3.6
	c1.9-2.2,5.3-2.5,7.6-0.5c0.2,0.2,0.3,0.3,0.5,0.5l3.1,3.6c2.3,2.6,5.7,4.1,9.3,3.8l4.7-0.3c3-0.2,5.5,2,5.7,5c0,0.2,0,0.5,0,0.7
	L68,25.3c-0.2,3.5,1.2,6.9,3.8,9.3l3.6,3.1c2.2,1.9,2.5,5.3,0.5,7.6C75.8,45.4,75.6,45.6,75.4,45.7L75.4,45.7z M55.1,28.4
	c-1.9-1.9-4.9-1.9-6.7,0c0,0,0,0,0,0l-10,10l-3.7-3.7c-1.9-1.9-4.9-1.9-6.7,0c0,0,0,0,0,0L24,38.6c-1.9,1.9-1.9,4.9,0,6.7
	c0,0,0,0,0,0l11,11c1.9,1.9,4.9,1.9,6.7,0L59,39c1.9-1.9,1.9-4.9,0-6.7c0,0,0,0,0,0L55.1,28.4z M38.3,52.6L27.7,42l3.6-3.6l5.3,5.3
	c1,1,2.6,1,3.5,0c0,0,0,0,0,0l11.6-11.6l3.6,3.6L38.3,52.6z"/>
</svg>
